<svg xmlns="http://www.w3.org/2000/svg"
     xmlns:cc="http://creativecommons.org/ns#"
     xmlns:dcterms="http://purl.org/dc/terms/"
     xmlns:rdf="http://www.w3.org/1999/02/22-rdf-syntax-ns#"
     width="16" height="16" viewBox="0 0 16 16">
  <metadata>
    <rdf:RDF>
      <cc:Work rdf:about="">
        <dcterms:format>image/svg+xml</dcterms:format>
        <dcterms:type rdf:resource="http://purl.org/dc/dcmitype/StillImage"/>
        <dcterms:title>Addons Icon</dcterms:title>
        <dcterms:license rdf:resource="https://www.mozilla.org/en-US/MPL/2.0/"/>
      </cc:Work>
    </rdf:RDF>
  </metadata>
  <path fill="context-fill #0C0C0D" fill-opacity="context-fill-opacity 1.0"
        d="M14.5 8c-.971 0-1 1-1.75 1a.765.765 0 0 1-.75-.75V5a1
           1 0 0 0-1-1H7.75A.765.765 0 0 1 7 3.25c0-.75 1-.779 1-1.75C8 .635 7.1
           0 6 0S4 .635 4 1.5c0 .971 1 1 1 1.75a.765.765 0 0 1-.75.75H1a1
           1 0 0 0-1 1v2.25A.765.765 0 0 0 .75 8c.75 0 .779-1 1.75-1C3.365 7 4
           7.9 4 9s-.635 2-1.5 2c-.971 0-1-1-1.75-1a.765.765 0 0 0-.75.75V15a1
           1 0 0 0 1 1h3.25a.765.765 0 0 0 .75-.75c0-.75-1-.779-1-1.75
           0-.865.9-1.5 2-1.5s2 .635 2 1.5c0 .971-1 1-1 1.75a.765.765
           0 0 0 .75.75H11a1
           1 0 0 0 1-1v-3.25a.765.765 0 0 1 .75-.75c.75 0 .779 1 1.75 1 .865
           0 1.5-.9 1.5-2s-.635-2-1.5-2z"/>
</svg>
