<svg xmlns="http://www.w3.org/2000/svg"
     xmlns:cc="http://creativecommons.org/ns#"
     xmlns:dcterms="http://purl.org/dc/terms/"
     xmlns:rdf="http://www.w3.org/1999/02/22-rdf-syntax-ns#"
     width="16" height="16" viewBox="0 0 16 16">
  <metadata>
    <rdf:RDF>
      <cc:Work rdf:about="">
        <dcterms:format>image/svg+xml</dcterms:format>
        <dcterms:type rdf:resource="http://purl.org/dc/dcmitype/StillImage"/>
        <dcterms:title>Close Icon</dcterms:title>
        <dcterms:license rdf:resource="https://www.mozilla.org/en-US/MPL/2.0/"/>
      </cc:Work>
    </rdf:RDF>
  </metadata>
  <path fill="context-fill" fill-opacity="context-fill-opacity"
        d="m9.108 7.776 4.709-4.709a.626.626 0 0 0-.884-.885L8.244 6.871l-.488 0-4.689-4.688a.625.625 0 1 0-.884.885L6.87 7.754l0 .491-4.687 4.687a.626.626 0 0 0 .884.885L7.754 9.13l.491 0 4.687 4.687a.627.627 0 0 0 .885 0 .626.626 0 0 0 0-.885L9.108 8.223l0-.447z"/>
</svg>
