<svg xmlns="http://www.w3.org/2000/svg"
     xmlns:cc="http://creativecommons.org/ns#"
     xmlns:dcterms="http://purl.org/dc/terms/"
     xmlns:rdf="http://www.w3.org/1999/02/22-rdf-syntax-ns#"
     width="16" height="16" viewBox="0 0 16 16">
  <metadata>
    <rdf:RDF>
      <cc:Work rdf:about="">
        <dcterms:format>image/svg+xml</dcterms:format>
        <dcterms:type rdf:resource="http://purl.org/dc/dcmitype/StillImage"/>
        <dcterms:title>Customize Icon</dcterms:title>
        <dcterms:license rdf:resource="https://www.mozilla.org/en-US/MPL/2.0/"/>
      </cc:Work>
    </rdf:RDF>
  </metadata>
  <path fill="context-fill #0C0C0D" fill-opacity="context-fill-opacity 1.0"
        d="M4 10a1.994 1.994 0 0 0-1.911 1.44c0 .01-.014.015-.017.025-.362
           1.135-.705 2.11-1.759 2.573l-.023.012-.024.012A.5.5
           0 0 0 0 14.5a.5.5 0 0 0 .5.5 6.974 6.974
           0 0 0 4.825-1.5c.006-.006.007-.013.013-.019A1.993 1.993
           0 0 0 4 10zM15.693.307a.984.984
           0 0 0-1.338-.046l-8.031 7a.982.982
           0 0 0-.049 1.433l1.032 1.031a.983.983
           0 0 0 .693.287h.033a.982.982
           0 0 0 .706-.335l7-8.031a.982.982
           0 0 0-.046-1.339z"/>
  <!--
  <path fill="context-fill" fill-opacity="context-fill-opacity"
        d="M15 7h-2.1a4.967 4.967 0 0 0-.732-1.753l1.49-1.49a1
           1 0 0 0-1.414-1.414l-1.49 1.49A4.968 4.968 0 0 0 9 3.1V1a1
           1 0 0 0-2 0v2.1a4.968 4.968 0 0 0-1.753.732l-1.49-1.49a1
           1 0 0 0-1.414 1.415l1.49 1.49A4.967 4.967 0 0 0 3.1 7H1a1
           1 0 0 0 0 2h2.1a4.968 4.968
           0 0 0 .737 1.763c-.014.013-.032.017-.045.03l-1.45 1.45a1
           1 0 1 0 1.414 1.414l1.45-1.45c.013-.013.018-.031.03-.045A4.968 4.968
           0 0 0 7 12.9V15a1
           1 0 0 0 2 0v-2.1a4.968 4.968 0 0 0 1.753-.732l1.49 1.49a1
           1 0 0 0 1.414-1.414l-1.49-1.49A4.967 4.967 0 0 0 12.9 9H15a1
           1 0 0 0 0-2z
           M5 8a3 3 0 1 1 3 3 3 3 0 0 1-3-3z"/>
  -->
</svg>
