<svg xmlns="http://www.w3.org/2000/svg"
     xmlns:cc="http://creativecommons.org/ns#"
     xmlns:dcterms="http://purl.org/dc/terms/"
     xmlns:rdf="http://www.w3.org/1999/02/22-rdf-syntax-ns#"
     width="32" height="32" viewBox="0 0 32 32">
  <metadata>
    <rdf:RDF>
      <cc:Work rdf:about="">
        <dcterms:format>image/svg+xml</dcterms:format>
        <dcterms:type rdf:resource="http://purl.org/dc/dcmitype/StillImage"/>
        <dcterms:title>Dollar Icon</dcterms:title>
        <dcterms:license rdf:resource="https://www.mozilla.org/en-US/MPL/2.0/"/>
      </cc:Work>
    </rdf:RDF>
  </metadata>
  <style>
    g:not(#current):not(:target),
    g:target ~ #current {
      display: none;
    }
  </style>
  <symbol id="outline">
    <path d="M17.3857868,14.0527919
             C14.2304569,13.0862944 13.4913706,12.4609137 13.4913706,11.0964467
             C13.4913706,9.61827411 14.7137056,8.85076142 16.4192893,8.85076142
             C17.9827411,8.85076142 19.3187817,9.33401015 20.5979695,10.4994924
             L22.4456853,8.42436548
             C21.1664975,7.20203046 19.3187819,6.26535905 17,6.00952148
             L17,2 L15,2 L15,6.00952148
             C12.3827412,6.43591742 9.76751269,8.53807107 9.76751269,11.3238579
             C9.76751269,14.1664975 11.4730964,15.786802 15.4812183,17.0091371
             C18.4375635,17.9187817 19.2335025,18.6294416 19.2335025,20.2213198
             C19.2335025,22.0690355 17.7553299,23.035533 15.7370558,23.035533
             C13.7756345,23.035533 12.2406091,22.3248731 10.9329949,21.1025381
             L9,23.2345178
             C10.4213198,24.6274112 12.8659899,25.8324934 15,26.0030518
             L15,30 L17,30 L17,26.0030518
             C20.7116753,25.4060974 22.9857868,22.893401 22.9857868,20.022335
             C22.9857868,16.4690355 20.7116751,15.1045685 17.3857868,14.0527919 Z"/>
  </symbol>
  <g id="blue" fill="#37adff">
    <use href="#outline"/>
  </g>
  <g id="purple" fill="#af51f5">
    <use href="#outline"/>
  </g>
  <g id="pink" fill="#ff4bda">
    <use href="#outline"/>
  </g>
  <g id="red" fill="#ff613d">
    <use href="#outline"/>
  </g>
  <g id="orange" fill="#ff9f00">
    <use href="#outline"/>
  </g>
  <g id="yellow" fill="#ffcb00">
    <use href="#outline"/>
  </g>
  <g id="green" fill="#51cd00">
    <use href="#outline"/>
  </g>
  <g id="turquoise" fill="#00c79a">
    <use href="#outline"/>
  </g>
  <g id="current" fill="currentColor">
    <use href="#outline"/>
  </g>
</svg>
