<svg xmlns="http://www.w3.org/2000/svg"
     xmlns:cc="http://creativecommons.org/ns#"
     xmlns:dcterms="http://purl.org/dc/terms/"
     xmlns:rdf="http://www.w3.org/1999/02/22-rdf-syntax-ns#"
     width="16" height="16" viewBox="0 0 16 16">
  <metadata>
    <rdf:RDF>
      <cc:Work rdf:about="">
        <dcterms:format>image/svg+xml</dcterms:format>
        <dcterms:type rdf:resource="http://purl.org/dc/dcmitype/StillImage"/>
        <dcterms:title>Edit Icon</dcterms:title>
      </cc:Work>
    </rdf:RDF>
  </metadata>
  <path fill="context-fill" fill-opacity="context-fill-opacity"
        d="m12.385 1.1641c-0.65496-0.038527-1.3637 0.21526-1.9219 0.77344l-8.2305 8.2305a0.70707 0.70707 0 0 0-0.18555 0.32812l-0.86719 3.4668a0.70707 0.70707 0 0 0 0.85742 0.85742l3.4668-0.86719a0.70707 0.70707 0 0 0 0.32812-0.18555l8.2305-8.2305c0.55817-0.55817 0.81196-1.2669 0.77344-1.9219-0.038528-0.65496-0.33745-1.2417-0.77344-1.6777s-1.0228-0.73491-1.6777-0.77344zm-0.082032 1.4102c0.26557 0.015622 0.54597 0.14948 0.75977 0.36328s0.34766 0.4942 0.36328 0.75977-0.05507 0.53163-0.36328 0.83984l-8.0918 8.0918-2.1328 0.5332 0.5332-2.1328 8.0918-8.0918c0.30821-0.30821 0.57428-0.3789 0.83984-0.36328z"/>
</svg>
