<svg xmlns="http://www.w3.org/2000/svg"
     xmlns:cc="http://creativecommons.org/ns#"
     xmlns:dcterms="http://purl.org/dc/terms/"
     xmlns:rdf="http://www.w3.org/1999/02/22-rdf-syntax-ns#"
     width="16" height="16" viewBox="0 0 16 16">
  <metadata>
    <rdf:RDF>
      <cc:Work rdf:about="">
        <dcterms:format>image/svg+xml</dcterms:format>
        <dcterms:type rdf:resource="http://purl.org/dc/dcmitype/StillImage"/>
        <dcterms:title>Edit Icon</dcterms:title>
      </cc:Work>
    </rdf:RDF>
  </metadata>
  <path fill="context-fill" fill-opacity="context-fill-opacity"
        d="m11.846 2.0042c-0.57448-0.033793-1.1961 0.18881-1.6857 0.6784l-7.2191 7.2191a0.62018 0.62018 0 0 0-0.16275 0.2878l-0.76063 3.0408a0.62018 0.62018 0 0 0 0.75206 0.75206l3.0408-0.76063a0.62018 0.62018 0 0 0 0.2878-0.16275l7.2191-7.2191c0.48958-0.48958 0.71218-1.1112 0.6784-1.6857-0.033794-0.57448-0.29598-1.0891-0.6784-1.4715-0.38241-0.38242-0.89712-0.6446-1.4715-0.6784zm-0.07195 1.2369c0.23294 0.013702 0.47888 0.13111 0.66641 0.31864 0.18753 0.18753 0.30494 0.43347 0.31864 0.66641 0.0137 0.23294-0.0483 0.4663-0.31864 0.73664l-7.0975 7.0975-1.8707 0.46768 0.46768-1.8707 7.0975-7.0975c0.27034-0.27034 0.50371-0.33234 0.73664-0.31864z"/>
</svg>
