<svg xmlns="http://www.w3.org/2000/svg"
     xmlns:cc="http://creativecommons.org/ns#"
     xmlns:dcterms="http://purl.org/dc/terms/"
     xmlns:rdf="http://www.w3.org/1999/02/22-rdf-syntax-ns#"
     width="32" height="32" viewBox="0 0 32 32">
  <metadata>
    <rdf:RDF>
      <cc:Work rdf:about="">
        <dcterms:format>image/svg+xml</dcterms:format>
        <dcterms:type rdf:resource="http://purl.org/dc/dcmitype/StillImage"/>
        <dcterms:title>Fence Icon</dcterms:title>
        <dcterms:license rdf:resource="https://www.mozilla.org/en-US/MPL/2.0/"/>
      </cc:Work>
    </rdf:RDF>
  </metadata>
  <style>
    g:not(#current):not(:target),
    g:target ~ #current {
      display: none;
    }
  </style>
  <symbol id="outline">
    <path d="M28,4l-2,2v4h-4V6l-2-2l-2,2v4h-4V6l-2-2l-2,2v4H6V6L4,4L2,6v22h4v-4h4v4h4v-4h4v4h4v-4h4v4h4V6L28,4z
             M6,22V12 h4v10H6z
             M14,22V12h4v10H14z
             M22,22V12h4v10H22z"/>
  </symbol>
  <g id="blue" fill="#37adff">
    <use href="#outline"/>
  </g>
  <g id="purple" fill="#af51f5">
    <use href="#outline"/>
  </g>
  <g id="pink" fill="#ff4bda">
    <use href="#outline"/>
  </g>
  <g id="red" fill="#ff613d">
    <use href="#outline"/>
  </g>
  <g id="orange" fill="#ff9f00">
    <use href="#outline"/>
  </g>
  <g id="yellow" fill="#ffcb00">
    <use href="#outline"/>
  </g>
  <g id="green" fill="#51cd00">
    <use href="#outline"/>
  </g>
  <g id="turquoise" fill="#00c79a">
    <use href="#outline"/>
  </g>
  <g id="current" fill="currentColor">
    <use href="#outline"/>
  </g>
</svg>
