<svg xmlns="http://www.w3.org/2000/svg"
     xmlns:dc="http://purl.org/dc/elements/1.1/"
     xmlns:cc="http://creativecommons.org/ns#"
     xmlns:rdf="http://www.w3.org/1999/02/22-rdf-syntax-ns#"
     width="128" height="128" viewBox="0 0 128 128">
  <metadata>
    <rdf:RDF>
      <cc:Work rdf:about="">
        <dc:format>image/svg+xml</dc:format>
        <dc:type rdf:resource="http://purl.org/dc/dcmitype/StillImage" />
      </cc:Work>
    </rdf:RDF>
  </metadata>
  <style>
    g:not(#color):not(:target),
    g:target ~ #color {
      display: none;
    }
  </style>
  <symbol id="sidetab">
    <path d="M 26 18 C 17.274378 18 10 25.274378 10 34 L 10 90
             C 10 98.725622 17.274378 106 26 106 L 102 106
             C 110.72562 106 118 98.725622 118 90 L 118 34
             C 118 25.274378 110.72562 18 102 18 L 26 18 z
             M 26 34 L 46 34 L 46 42 L 26 42 L 26 34 z
             M 54 34 L 102 34 L 102 90 L 54 90 L 54 34 z
             M 26 50 L 46 50 L 46 58 L 26 58 L 26 50 z
             M 26 66 L 46 66 L 46 74 L 26 74 L 26 66 z
             M 26 82 L 46 82 L 46 90 L 26 90 L 26 82 z"/>
  </symbol>
  <symbol id="activetab">
    <path d="m 26,50 h 20 v 8 H 26 Z"/>
  </symbol>
  <g id="context">
    <use href="#sidetab" fill="context-fill"/>
  </g>
  <g id="black">
    <use href="#sidetab" fill="#000"/>
  </g>
  <g id="neutral">
    <use href="#sidetab" fill="#808080"/>
  </g>
  <g id="gray">
    <use href="#sidetab" fill="#4C4C4C"/>
  </g>
  <g id="white">
    <use href="#sidetab" fill="#FFF"/>
  </g>
  <g id="off">
    <use href="#sidetab" fill="ButtonShadow"/>
  </g>
  <g id="color">
    <use href="#sidetab" fill="#002147"/>
    <use href="#activetab" fill="#E66000"/>
  </g>
</svg>
