<svg xmlns="http://www.w3.org/2000/svg"
     xmlns:dc="http://purl.org/dc/elements/1.1/"
     xmlns:cc="http://creativecommons.org/ns#"
     xmlns:rdf="http://www.w3.org/1999/02/22-rdf-syntax-ns#"
     width="128" height="128" viewBox="0 0 128 128">
  <metadata>
    <rdf:RDF>
      <cc:Work rdf:about="">
        <dc:format>image/svg+xml</dc:format>
        <dc:type rdf:resource="http://purl.org/dc/dcmitype/StillImage" />
      </cc:Work>
    </rdf:RDF>
  </metadata>
  <style>
    g:not(#color):not(:target),
    g:target ~ #color {
      display: none;
    }
  </style>
  <symbol id="sidetab">
    <path d="M 26 10 C 17.274378 10 10 17.274378 10 26
             L 10 102 C 10 110.72562 17.274378 118 26 118
             L 102 118 C 110.72562 118 118 110.72562 118 102
             L 118 26 C 118 17.274378 110.72562 10 102 10 L 26 10 z
             M 26 26 L 46 26 L 46 39 L 26 39 L 26 26 z
             M 54 26 L 102 26 L 102 102 L 54 102 L 54 26 z
             M 26 47 L 46 47 L 46 60 L 26 60 L 26 47 z
             M 26 68 L 46 68 L 46 81 L 26 81 L 26 68 z
             M 26 89 L 46 89 L 46 102 L 26 102 L 26 89 z"/>
  </symbol>
  <symbol id="activetab">
    <path d="M 25,46 H 47 V 62 H 25 Z"/>
  </symbol>
  <g id="context" fill="context-fill" fill-opacity="context-fill-opacity">
    <use href="#sidetab"/>
  </g>
  <g id="current" fill="currentColor">
    <use href="#sidetab"/>
  </g>
  <g id="dark" fill="#0C0C0D" fill-opacity="0.8">
    <use href="#sidetab"/>
  </g>
  <g id="light" fill="#F9F9FA" fill-opacity="0.7">
    <use href="#sidetab"/>
  </g>
  <g id="color">
    <use href="#activetab" fill="#E66000"/>
    <use href="#sidetab" fill="#002147"/>
  </g>
</svg>
