<svg xmlns="http://www.w3.org/2000/svg"
     xmlns:dc="http://purl.org/dc/elements/1.1/"
     xmlns:cc="http://creativecommons.org/ns#"
     xmlns:rdf="http://www.w3.org/1999/02/22-rdf-syntax-ns#"
     width="128" height="128" viewBox="0 0 128 128">
  <metadata>
    <rdf:RDF>
      <cc:Work rdf:about="">
        <dc:format>image/svg+xml</dc:format>
        <dc:type rdf:resource="http://purl.org/dc/dcmitype/StillImage" />
      </cc:Work>
    </rdf:RDF>
  </metadata>
  <style>
    g:not(#color):not(:target),
    g:target ~ #color {
      display: none;
    }
    #current,
    #dark {
      fill: context-fill rgb(91,91,102);
    }
    #light {
      fill: context-fill rgb(251,251,254);
    }
    @media (prefers-color-scheme: dark) {
      #color > use[href="#activetab"],
      #color > use[href="#background"] {
        fill: transparent;
      }
      #color > use[href="#sidetab"],
      #current {
        fill: context-fill rgb(251,251,254);
      }
    }
  </style>
  <symbol id="outline">
    <path d="m26 10c-8.7256 0-16 7.2744-16 16v76c0 8.7256 7.2744 16 16 16h76c8.7256 0 16-7.2744 16-16v-76c0-8.7256-7.2744-16-16-16zm-6 14.8 4.8-4.8h21.2v14.5h-26zm36-4.8h47.2l4.8 4.8v78.4l-4.8 4.8h-47.2zm-36 24.5h26v14.5h-26zm0 24.5h26v14.5h-26zm0 24.5h26v14.5h-21.2l-4.8-4.8z"/>
  </symbol>
  <symbol id="background">
    <path d="m25 25h78v78h-78z"/>
  </symbol>
  <symbol id="activetab">
    <path d="m25 46h22v15h-22z"/>
  </symbol>
  <symbol id="sidetab">
    <path d="m26 10c-8.7256 0-16 7.2744-16 16v76c0 8.7256 7.2744 16 16 16h76c8.7256 0 16-7.2744 16-16v-76c0-8.7256-7.2744-16-16-16h-76zm0 16h20v13h-20v-13zm28 0h48v76h-48v-76zm-28 21h20v13h-20v-13zm0 21h20v13h-20v-13zm0 21h20v13h-20v-13z"/>
  </symbol>
  <g id="current">
    <use href="#outline"/>
  </g>
  <g id="dark">
    <use href="#outline"/>
  </g>
  <g id="light">
    <use href="#outline"/>
  </g>
  <g id="color">
    <use href="#background" fill="#fff"/>
    <use href="#activetab" fill="#e66000"/>
    <use href="#sidetab" fill="#002147"/>
  </g>
</svg>
