<svg xmlns="http://www.w3.org/2000/svg"
     xmlns:dc="http://purl.org/dc/elements/1.1/"
     xmlns:cc="http://creativecommons.org/ns#"
     xmlns:rdf="http://www.w3.org/1999/02/22-rdf-syntax-ns#"
     width="128" height="128" viewBox="0 0 128 128">
  <metadata>
    <rdf:RDF>
      <cc:Work rdf:about="">
        <dc:format>image/svg+xml</dc:format>
        <dc:type rdf:resource="http://purl.org/dc/dcmitype/StillImage" />
      </cc:Work>
    </rdf:RDF>
  </metadata>
  <style>
    g:not(#color):not(:target),
    g:target ~ #color {
      display: none;
    }
  </style>
  <symbol id="outline">
    <path d="m26 14c-6.5788 0-12 5.4212-12 12v76c0 6.5788 5.4212 12 12 12h76c6.5788 0 12-5.4212 12-12v-76c0-6.5788-5.4212-12-12-12h-76zm0 8h20v1.0156 13.984h-24v-11c0-2.2852 1.7148-4 4-4zm28 0h48c2.2852 0 4 1.7148 4 4v76c0 2.2852-1.7148 4-4 4h-48v-84zm-32 23h24v15h-24v-15zm0 23h24v15h-24v-15zm0 23h24v15h-20c-2.2852 0-4-1.7148-4-4v-11z"/>
  </symbol>
  <symbol id="background">
    <path d="m22 22h84v84h-84z"/>
  </symbol>
  <symbol id="activetab">
    <path d="m23 45h24v16h-24z"/>
  </symbol>
  <symbol id="sidetab">
    <path d="m26 12c-7.6522 0-14 6.3478-14 14v76c0 7.6522 6.3478 14 14 14h76c7.6522 0 14-6.3478 14-14v-76c0-7.6522-6.3478-14-14-14zm0 12h20v14h-22v-12c0-1.2118 0.78822-2 2-2zm28 0h48c1.2118 0 2 0.78822 2 2v76c0 1.2118-0.78822 2-2 2h-48zm-30 22h22v14h-22zm0 22h22v14h-22zm0 22h22v14h-20c-1.2118 0-2-0.78822-2-2z"/>
  </symbol>
  <g id="context" fill="context-fill" fill-opacity="context-fill-opacity">
    <use href="#outline"/>
  </g>
  <g id="current"
     fill="context-fill currentColor"
     fill-opacity="context-fill-opacity">
    <use href="#outline"/>
  </g>
  <g id="color">
    <use href="#background" fill="#FFF"/>
    <use href="#activetab" fill="#E66000"/>
    <use href="#sidetab" fill="#002147"/>
  </g>
</svg>
