<svg xmlns="http://www.w3.org/2000/svg"
     xmlns:cc="http://creativecommons.org/ns#"
     xmlns:dcterms="http://purl.org/dc/terms/"
     xmlns:rdf="http://www.w3.org/1999/02/22-rdf-syntax-ns#"
     width="16" height="16" viewBox="0 0 16 16">
  <metadata>
    <rdf:RDF>
      <cc:Work rdf:about="">
        <dcterms:format>image/svg+xml</dcterms:format>
        <dcterms:type rdf:resource="http://purl.org/dc/dcmitype/StillImage"/>
        <dcterms:title>Options Icon</dcterms:title>
        <dcterms:license rdf:resource="https://www.mozilla.org/en-US/MPL/2.0/"/>
      </cc:Work>
    </rdf:RDF>
  </metadata>
  <path fill="context-fill #0C0C0D" fill-opacity="context-fill-opacity 1.0"
        d="M15 7h-2.1a4.967 4.967 0 0 0-.732-1.753l1.49-1.49a1
           1 0 0 0-1.414-1.414l-1.49 1.49A4.968 4.968 0 0 0 9 3.1V1a1
           1 0 0 0-2 0v2.1a4.968 4.968 0 0 0-1.753.732l-1.49-1.49a1
           1 0 0 0-1.414 1.415l1.49 1.49A4.967 4.967 0 0 0 3.1 7H1a1
           1 0 0 0 0 2h2.1a4.968 4.968
           0 0 0 .737 1.763c-.014.013-.032.017-.045.03l-1.45 1.45a1
           1 0 1 0 1.414 1.414l1.45-1.45c.013-.013.018-.031.03-.045A4.968 4.968
           0 0 0 7 12.9V15a1
           1 0 0 0 2 0v-2.1a4.968 4.968 0 0 0 1.753-.732l1.49 1.49a1
           1 0 0 0 1.414-1.414l-1.49-1.49A4.967 4.967 0 0 0 12.9 9H15a1
           1 0 0 0 0-2z
           M5 8a3 3 0 1 1 3 3 3 3 0 0 1-3-3z"/>
</svg>
