<svg xmlns="http://www.w3.org/2000/svg"
     xmlns:dc="http://purl.org/dc/elements/1.1/"
     xmlns:cc="http://creativecommons.org/ns#"
     xmlns:rdf="http://www.w3.org/1999/02/22-rdf-syntax-ns#"
     width="128" height="128" viewBox="0 0 128 128">
  <metadata>
    <rdf:RDF>
      <cc:Work rdf:about="">
        <dc:format>image/svg+xml</dc:format>
        <dc:type rdf:resource="http://purl.org/dc/dcmitype/StillImage" />
      </cc:Work>
    </rdf:RDF>
  </metadata>
  <style>
    g:not(#color):not(:target),
    g:target ~ #color {
      display: none;
    }
  </style>
  <symbol id="sidetab">
    <path d="M 26 20 C 18.347783 20 12 26.347783 12 34 L 12 90
             C 12 97.652217 18.347783 104 26 104 L 102 104
             C 109.65222 104 116 97.652217 116 90 L 116 34
             C 116 26.347783 109.65222 20 102 20 L 26 20 z
             M 26 32 L 46 32 L 46 33 L 46 41 L 24 41 L 24 34
             C 24 32.788217 24.788217 32 26 32 z
             M 54 32 L 102 32 C 103.21178 32 104 32.788217 104 34 L 104 90
             C 104 91.211783 103.21178 92 102 92 L 54 92 L 54 32 z
             M 24 49 L 46 49 L 46 58 L 24 58 L 24 49 z
             M 24 66 L 46 66 L 46 75 L 24 75 L 24 66 z
             M 24 83 L 46 83 L 46 92 L 26 92
             C 24.788217 92 24 91.211783 24 90 L 24 83 z"/>
  </symbol>
  <symbol id="activetab">
    <path d="M 23,48 H 47 V 59 H 23 Z"/>
  </symbol>
  <g id="context">
    <use href="#sidetab" fill="context-fill"/>
  </g>
  <g id="black">
    <use href="#sidetab" fill="#000"/>
  </g>
  <g id="neutral">
    <use href="#sidetab" fill="#808080"/>
  </g>
  <g id="gray">
    <use href="#sidetab" fill="#4C4C4C"/>
  </g>
  <g id="white">
    <use href="#sidetab" fill="#FFF"/>
  </g>
  <g id="off">
    <use href="#sidetab" fill="ButtonShadow"/>
  </g>
  <g id="color">
    <use href="#activetab" fill="#E66000"/>
    <use href="#sidetab" fill="#002147"/>
  </g>
</svg>
