<svg xmlns="http://www.w3.org/2000/svg"
     xmlns:dc="http://purl.org/dc/elements/1.1/"
     xmlns:cc="http://creativecommons.org/ns#"
     xmlns:rdf="http://www.w3.org/1999/02/22-rdf-syntax-ns#"
     width="128" height="128" viewBox="0 0 128 128">
  <metadata>
    <rdf:RDF>
      <cc:Work rdf:about="">
        <dc:format>image/svg+xml</dc:format>
        <dc:type rdf:resource="http://purl.org/dc/dcmitype/StillImage" />
      </cc:Work>
    </rdf:RDF>
  </metadata>
  <style>
    g:not(#color):not(:target),
    g:target ~ #color {
      display: none;
    }
  </style>
  <symbol id="sidetab">
    <path d="M 16 16 C 7.2743779 16 0 23.274378 0 32 L 0 96
             C 0 104.72562 7.2743779 112 16 112 L 112 112
             C 120.72562 112 128 104.72562 128 96 L 128 32
             C 128 23.274378 120.72562 16 112 16 L 16 16 z
             M 16 32 L 40 32 L 40 42 L 16 42 L 16 32 z
             M 48 32 L 112 32 L 112 96 L 48 96 L 48 32 z
             M 16 50 L 40 50 L 40 60 L 16 60 L 16 50 z
             M 16 68 L 40 68 L 40 78 L 16 78 L 16 68 z
             M 16 86 L 40 86 L 40 96 L 16 96 L 16 86 z"/>
  </symbol>
  <symbol id="activetab">
    <path d="M 16 50 L 40 50 L 40 60 L 16 60 L 16 50 z"/>
  </symbol>
  <g id="context">
    <use href="#sidetab" fill="context-fill"/>
  </g>
  <g id="black">
    <use href="#sidetab" fill="#000"/>
  </g>
  <g id="neutral">
    <use href="#sidetab" fill="#808080"/>
  </g>
  <g id="gray">
    <use href="#sidetab" fill="#4C4C4C"/>
  </g>
  <g id="white">
    <use href="#sidetab" fill="#FFF"/>
  </g>
  <g id="off">
    <use href="#sidetab" fill="ButtonShadow"/>
  </g>
  <g id="color">
    <use href="#sidetab" fill="#002147"/>
    <use href="#activetab" fill="#E66000"/>
  </g>
</svg>
