<svg xmlns="http://www.w3.org/2000/svg"
     xmlns:dc="http://purl.org/dc/elements/1.1/"
     xmlns:cc="http://creativecommons.org/ns#"
     xmlns:rdf="http://www.w3.org/1999/02/22-rdf-syntax-ns#"
     width="128" height="128" viewBox="0 0 128 128">
  <metadata>
    <rdf:RDF>
      <cc:Work rdf:about="">
        <dc:format>image/svg+xml</dc:format>
        <dc:type rdf:resource="http://purl.org/dc/dcmitype/StillImage" />
      </cc:Work>
    </rdf:RDF>
  </metadata>
  <style>
    g:not(#color):not(:target),
    g:target ~ #color {
      display: none;
    }
  </style>
  <symbol id="sidetab">
    <path d="M 26 18 C 17.274378 18 10 25.274378 10 34
             L 10 90 C 10 98.725622 17.274378 106 26 106
             L 102 106 C 110.72562 106 118 98.725622 118 90
             L 118 34 C 118 25.274378 110.72562 18 102 18 L 26 18 z
             M 26 34 L 46 34 L 46 42 L 26 42 L 26 34 z
             M 54 34 L 102 34 L 102 90 L 54 90 L 54 34 z
             M 26 50 L 46 50 L 46 58 L 26 58 L 26 50 z
             M 26 66 L 46 66 L 46 74 L 26 74 L 26 66 z
             M 26 82 L 46 82 L 46 90 L 26 90 L 26 82 z"/>
  </symbol>
  <symbol id="activetab">
    <path d="M 25,49 H 47 V 59 H 25 Z"/>
  </symbol>
  <g id="context">
    <use href="#sidetab" fill="context-fill"
         fill-opacity="context-fill-opacity"/>
  </g>
  <g id="photon_gray_90">
    <use href="#sidetab" fill="#0C0C0D" fill-opacity="0.8"/>
  </g>
  <g id="photon_gray_10">
    <use href="#sidetab" fill="#F9F9FA" fill-opacity="0.8"/>
  </g>
  <g id="off">
    <use href="#sidetab" fill="context-fill" fill-opacity="0.25"/>
  </g>
  <g id="color">
    <use href="#activetab" fill="#E66000"/>
    <use href="#sidetab" fill="#002147"/>
  </g>
</svg>
