<svg xmlns="http://www.w3.org/2000/svg"
     xmlns:dc="http://purl.org/dc/elements/1.1/"
     xmlns:cc="http://creativecommons.org/ns#"
     xmlns:rdf="http://www.w3.org/1999/02/22-rdf-syntax-ns#"
     width="128" height="128" viewBox="0 0 128 128">
  <metadata>
    <rdf:RDF>
      <cc:Work rdf:about="">
        <dc:format>image/svg+xml</dc:format>
        <dc:type rdf:resource="http://purl.org/dc/dcmitype/StillImage" />
      </cc:Work>
    </rdf:RDF>
  </metadata>
  <style>
    g:not(#color):not(:target),
    g:target ~ #color {
      display: none;
    }
  </style>
  <symbol id="sidetab">
    <path d="M 26 16 C 17.274378 16 10 23.274378 10 32
             L 10 92 C 10 100.72562 17.274378 108 26 108
             L 102 108 C 110.72562 108 118 100.72562 118 92
             L 118 32 C 118 23.274378 110.72562 16 102 16 L 26 16 z
             M 26 32 L 46 32 L 46 33 L 46 41 L 26 41 L 26 32 z
             M 54 32 L 102 32 L 102 92 L 54 92 L 54 32 z
             M 26 49 L 46 49 L 46 58 L 26 58 L 26 49 z
             M 26 66 L 46 66 L 46 75 L 26 75 L 26 66 z
             M 26 83 L 46 83 L 46 92 L 26 92 L 26 83 z"/>
  </symbol>
  <symbol id="activetab">
    <path d="M 25,49 H 47 V 59 H 25 Z"/>
  </symbol>
  <g id="context">
    <use href="#sidetab" fill="context-fill"
         fill-opacity="context-fill-opacity"/>
  </g>
  <g id="photon_gray_90">
    <use href="#sidetab" fill="#0C0C0D" fill-opacity="0.8"/>
  </g>
  <g id="photon_gray_10">
    <use href="#sidetab" fill="#F9F9FA" fill-opacity="0.8"/>
  </g>
  <g id="off">
    <use href="#sidetab" fill="context-fill" fill-opacity="0.25"/>
  </g>
  <g id="color">
    <use href="#activetab" fill="#E66000"/>
    <use href="#sidetab" fill="#002147"/>
  </g>
</svg>
